<?xml version="1.0" standalone="no"?>
<!DOCTYPE svg PUBLIC "-//W3C//DTD SVG 1.1//EN" "http://www.w3.org/Graphics/SVG/1.1/DTD/svg11.dtd" >
<svg xmlns="http://www.w3.org/2000/svg">
<metadata></metadata>
<defs>
<font id="trendexlightssiregular" horiz-adv-x="1017" >
<font-face units-per-em="2048" ascent="1638" descent="-410" />
<missing-glyph horiz-adv-x="628" />
<glyph horiz-adv-x="2048" />
<glyph horiz-adv-x="2048" />
<glyph unicode="&#xd;" horiz-adv-x="628" />
<glyph unicode=" "  horiz-adv-x="628" />
<glyph unicode="&#x09;" horiz-adv-x="628" />
<glyph unicode="&#xa0;" horiz-adv-x="628" />
<glyph unicode="!" horiz-adv-x="413" d="M176 0v168h62v-168h-62zM176 344v1186h62v-1186h-62z" />
<glyph unicode="&#x22;" horiz-adv-x="638" d="M170 918v612h61v-612h-61zM406 918v612h61v-612h-61z" />
<glyph unicode="#" horiz-adv-x="1083" d="M10 561l6 47h310l39 283h-310l8 49h310l63 457h49l-63 -457h293l63 457h49l-63 -457h309l-6 -49h-311l-39 -283h311l-6 -47h-309l-70 -498h-49l68 498h-293l-68 -498h-51l69 498h-309zM375 608h293l41 283h-293z" />
<glyph unicode="$" horiz-adv-x="1001" d="M102 469h62q12 -143 108.5 -236.5t239.5 -93.5q135 0 231.5 95.5t96.5 232.5q0 195 -176 278q-164 59 -328 121q-174 88 -174 291q0 139 88 236.5t227 115.5v166h62v-166q137 -16 227 -106t102 -227h-61q-14 117 -97 197.5t-198 80.5q-121 0 -205 -89t-84 -208 q0 -176 174 -252q164 -59 328 -121q176 -96 176 -319q0 -152 -106.5 -264.5t-255.5 -122.5v-197h-62v197q-158 14 -262 123.5t-113 267.5z" />
<glyph unicode="%" horiz-adv-x="1382" d="M0 1221q0 145 94 241.5t240 96.5q145 0 239.5 -96.5t94.5 -241.5t-94.5 -241.5t-239.5 -96.5t-239.5 96t-94.5 242zM57 1221q0 -123 77 -204t200 -81t199.5 81t76.5 204t-76.5 203.5t-199.5 80.5t-200 -81t-77 -203zM188 0l936 1530h66l-936 -1530h-66zM715 311 q0 143 95 239.5t239 96.5q143 0 238 -96.5t95 -239.5q0 -145 -94 -241.5t-239 -96.5t-239.5 96.5t-94.5 241.5zM772 311q0 -123 77 -204.5t200 -81.5t199.5 81.5t76.5 204.5t-77 204t-199 81q-123 0 -200 -81t-77 -204z" />
<glyph unicode="&#x26;" horiz-adv-x="1296" d="M-10 401q0 315 405 478q-125 137 -141 159q-70 98 -70 195q0 133 93.5 229.5t226.5 96.5q135 0 235.5 -99.5t100.5 -234.5q0 -139 -113 -234q-61 -53 -233 -131l376 -389l256 496h68l-279 -541l394 -408l-43 -41l-379 392q-109 -215 -168 -279q-109 -117 -295 -117 q-180 0 -307 124t-127 304zM51 399q0 -160 109.5 -264t269.5 -104q164 0 264 116q50 60 146 267l-404 422q-385 -172 -385 -437zM246 1241q0 -92 69 -186q12 -16 138 -150q172 78 219 113q106 82 106 209q0 113 -80 192.5t-192 79.5q-109 0 -184.5 -75.5t-75.5 -182.5z" />
<glyph unicode="'" horiz-adv-x="407" d="M172 918v612h61v-612h-61z" />
<glyph unicode="(" horiz-adv-x="659" d="M33 498q0 319 160.5 609t433.5 452v-74q-244 -154 -386.5 -424t-142.5 -563q0 -295 140 -561q143 -272 389 -426v-78q-283 188 -437 454q-158 279 -157 611z" />
<glyph unicode=")" horiz-adv-x="659" d="M33 -496q244 154 386 424.5t142 563.5q0 295 -141 561q-143 274 -387 428v78q281 -186 434 -457q160 -278 160 -610q0 -319 -160 -607q-162 -293 -434 -452v71z" />
<glyph unicode="*" horiz-adv-x="909" d="M176 1098l219 129l-219 125l31 53l217 -129v254h59v-254l217 129l29 -51l-215 -127l219 -131l-28 -49l-222 127v-256h-59v258l-217 -129z" />
<glyph unicode="+" horiz-adv-x="1120" d="M49 487v60h483v489h58v-489h483v-60h-483v-487h-58v487h-483z" />
<glyph unicode="," horiz-adv-x="342" d="M74 -150l129 320h65l-129 -320h-65z" />
<glyph unicode="-" horiz-adv-x="661" d="M57 543v59h545v-59h-545z" />
<glyph unicode="." horiz-adv-x="282" d="M111 0v168h61v-168h-61z" />
<glyph unicode="/" horiz-adv-x="831" d="M23 -207l718 1737h68l-719 -1737h-67z" />
<glyph unicode="0" d="M20 459v594q0 219 133.5 362.5t348.5 143.5q211 0 352 -139.5t141 -348.5v-612q0 -207 -138 -346.5t-345 -139.5q-211 0 -351.5 136.5t-140.5 349.5zM82 459q0 -184 121 -307t305 -123q186 0 306 122t120 308v612q0 188 -121 309t-311 121q-188 0 -304 -125t-116 -317 v-600z" />
<glyph unicode="1" d="M309 1475v55h398v-1530h-62v1475h-336z" />
<glyph unicode="2" d="M51 0v55l651 674q203 209 203 369q0 172 -106.5 287.5t-278.5 115.5q-178 0 -284 -133q-94 -121 -99 -305h-61q4 211 121 348q125 147 331 148q199 0 322 -140q117 -131 117 -332q0 -135 -183 -366q-129 -166 -366 -395q-143 -135 -285 -271h834v-55h-916z" />
<glyph unicode="3" d="M45 444h61q4 -176 118 -295.5t288 -119.5t286.5 116.5t112.5 290.5q0 217 -155 322q-133 90 -359 90v55q414 0 414 301q0 127 -80 212t-207 85q-125 0 -209 -82t-92 -209h-61q8 147 108.5 248t247.5 101q154 0 254 -101.5t100 -255.5q0 -106 -58 -196.5t-155 -124.5v-4 q141 -49 227.5 -165t86.5 -263q0 -209 -129 -342.5t-338 -133.5q-197 0 -328 137.5t-133 333.5z" />
<glyph unicode="4" d="M4 297v55l770 1178h84v-1176h154v-57h-154v-297h-61v297h-793zM76 354h721v1102h-4z" />
<glyph unicode="5" d="M2 449h61q20 -174 146.5 -297t298.5 -123q182 0 313 139t131 324q0 188 -129 329.5t-315 141.5q-203 0 -346 -179l-53 15l139 731h680v-55h-631l-111 -578q152 121 326 121q211 0 356.5 -154.5t145.5 -365.5q0 -213 -147.5 -369t-360.5 -156q-197 0 -340 142 q-141 135 -164 334z" />
<glyph unicode="6" d="M8 473q0 215 234 565q178 246 354 492h70l-406 -594l4 -2q117 78 250 78q213 0 356 -154q138 -149 138 -362t-143.5 -368t-356.5 -155t-356.5 142.5t-143.5 357.5zM70 477q0 -193 122.5 -320.5t313.5 -127.5q190 0 315 135t125 325q0 193 -117 326q-123 141 -313 141 q-197 0 -321.5 -140t-124.5 -339z" />
<glyph unicode="7" d="M106 1475v55h805v-55l-675 -1475h-64l674 1475h-740z" />
<glyph unicode="8" d="M47 432q0 147 89 268t229 166q-96 43 -159 134.5t-63 197.5q0 145 109.5 253t255.5 108q152 0 258 -105.5t106 -255.5q0 -106 -61 -197.5t-160 -134.5q141 -45 229.5 -166t88.5 -268q0 -190 -135.5 -324.5t-325.5 -134.5q-188 0 -324.5 134.5t-136.5 324.5zM109 432 q0 -168 116.5 -285.5t282.5 -117.5q168 0 283.5 117.5t115.5 285.5t-115.5 286t-283.5 118q-166 0 -282.5 -118t-116.5 -286zM205 1196q0 -127 89 -216t214 -89q127 0 215 89t88 216t-87 216t-216 89q-127 0 -215 -89t-88 -216z" />
<glyph unicode="9" d="M8 1034q0 213 144.5 369t355.5 156q215 0 357.5 -143.5t142.5 -358.5t-232 -568q-178 -246 -356 -489h-70l406 596l-4 2q-113 -78 -250 -78q-211 0 -352.5 150.5t-141.5 363.5zM70 1040q0 -190 120.5 -327.5t309.5 -137.5q199 0 325 142q121 135 121 336 q0 193 -122 320.5t-314 127.5q-188 0 -314 -135t-126 -326z" />
<glyph unicode=":" horiz-adv-x="428" d="M184 0v168h62v-168h-62zM184 928v168h62v-168h-62z" />
<glyph unicode=";" horiz-adv-x="477" d="M141 -150l129 320h66l-129 -320h-66zM268 928v168h62v-168h-62z" />
<glyph unicode="&#x3c;" horiz-adv-x="1132" d="M55 485v68l1024 485v-63l-956 -455l956 -457v-63z" />
<glyph unicode="=" horiz-adv-x="1081" d="M29 287v59h1024v-59h-1024zM29 688v60h1024v-60h-1024z" />
<glyph unicode="&#x3e;" horiz-adv-x="1116" d="M47 0v63l957 457l-957 455v63l1024 -485v-68z" />
<glyph unicode="?" horiz-adv-x="886" d="M6 1122q8 188 131 311t309 123q182 0 308.5 -127t126.5 -309q0 -129 -103 -248l-192 -208q-102 -139 -103 -320h-61q6 203 108 346q94 102 191.5 208t97.5 226q0 156 -107.5 261.5t-262.5 105.5q-162 0 -268.5 -102.5t-112.5 -266.5h-62zM422 0v168h59v-168h-59z" />
<glyph unicode="@" horiz-adv-x="1644" d="M78 756q0 332 228.5 567.5t557.5 235.5q289 0 492 -179q211 -184 211 -469q0 -207 -133 -385q-145 -193 -349 -192q-72 0 -116.5 40t-44.5 113h-4q-92 -145 -261 -145q-106 0 -167 82q-53 76 -54 186q0 195 119 377q131 205 315 205q84 0 144.5 -46t73.5 -126h4l47 139 h57q-61 -170 -125 -340q-98 -281 -98 -330q0 -102 112 -102q178 0 306 178q117 162 116 344q0 264 -190 432q-182 162 -451 162q-313 0 -523 -217t-210 -530q0 -305 205 -517t508 -212q195 0 368 97t259 263h51q-80 -190 -275 -305q-184 -109 -401 -109q-324 0 -548 228.5 t-224 554.5zM496 610q0 -90 39 -147q43 -68 129 -68q152 0 243 148q31 49 117 278q33 86 33 135q0 76 -52.5 129.5t-127.5 53.5q-160 0 -277 -191q-104 -168 -104 -338z" />
<glyph unicode="A" horiz-adv-x="1415" d="M18 0l650 1530h80l649 -1530h-66l-227 535h-793l-227 -535h-66zM338 590h739l-370 883z" />
<glyph unicode="B" horiz-adv-x="892" d="M16 0v1530h322q201 0 315 -88q129 -100 129 -295q0 -242 -209 -334v-4q141 -41 222.5 -148.5t81.5 -252.5q0 -408 -482 -408h-379zM78 55h319q418 1 418 353q0 188 -127 282q-113 84 -307 84h-303v-719zM78 829h274q369 0 369 326q0 319 -383 320h-260v-646z" />
<glyph unicode="C" horiz-adv-x="1515" d="M33 766q0 334 226 563.5t560 229.5q199 0 378.5 -99.5t285.5 -269.5h-72q-102 143 -261 227t-331 84q-307 0 -516 -213t-209 -522q0 -307 209 -522t516 -215q174 0 334 82t258 223h70q-98 -168 -280.5 -264.5t-381.5 -96.5q-334 0 -560 228.5t-226 564.5z" />
<glyph unicode="D" horiz-adv-x="1388" d="M98 0v1530h428q358 0 561 -204t203 -560q0 -358 -202.5 -562t-561.5 -204h-428zM160 55h366q328 0 515.5 189.5t187.5 517.5q0 332 -185.5 522.5t-517.5 190.5h-366v-1420z" />
<glyph unicode="E" horiz-adv-x="980" d="M96 0v1530h832v-55h-770v-676h770v-56h-770v-688h770v-55h-832z" />
<glyph unicode="F" horiz-adv-x="907" d="M76 0v1530h743v-55h-682v-676h682v-56h-682v-743h-61z" />
<glyph unicode="G" horiz-adv-x="1658" d="M41 766q0 334 226.5 563.5t559.5 229.5q207 0 392 -97q193 -98 297 -270h-74q-111 147 -271.5 228t-343.5 81q-307 0 -516 -214t-209 -521t209 -522t516 -215q256 0 467 155q219 162 267 408h-904v55h977q-35 -293 -274 -487q-233 -186 -533 -187q-334 0 -560 228.5 t-226 564.5z" />
<glyph unicode="H" horiz-adv-x="1247" d="M139 0v1530h62v-731h848v731h61v-1530h-61v743h-848v-743h-62z" />
<glyph unicode="I" horiz-adv-x="339" d="M139 0v1530h62v-1530h-62z" />
<glyph unicode="J" horiz-adv-x="909" d="M53 291h68q27 -117 110.5 -189.5t202.5 -72.5q317 0 318 409v1092h61v-1110q0 -201 -88 -318q-98 -129 -295 -129q-143 0 -247.5 88.5t-129.5 229.5z" />
<glyph unicode="K" horiz-adv-x="1120" d="M139 0v1530h62v-1034h4l772 1034h74l-566 -754l566 -776h-74l-531 727l-245 -328v-399h-62z" />
<glyph unicode="L" horiz-adv-x="778" d="M74 0v1530h61v-1475h641v-55h-702z" />
<glyph unicode="M" horiz-adv-x="1871" d="M139 0v1530h99l700 -1432l698 1432h97v-1530h-62v1468h-4l-713 -1468h-34l-715 1468h-4v-1468h-62z" />
<glyph unicode="N" horiz-adv-x="1472" d="M139 0v1530h92l1039 -1448h4v1448h61v-1530h-78l-1052 1468h-4v-1468h-62z" />
<glyph unicode="O" horiz-adv-x="1734" d="M82 766q0 334 226.5 563.5t559.5 229.5q334 0 560.5 -229.5t226.5 -563.5q0 -336 -226.5 -564.5t-560.5 -228.5q-336 0 -561 228.5t-225 564.5zM143 766q0 -309 208 -523t517 -214q307 0 516 214t209 523t-208.5 522t-516.5 213q-309 0 -517 -213t-208 -522z" />
<glyph unicode="P" horiz-adv-x="1007" d="M82 0v1530h352q533 0 533 -434q0 -268 -195 -367q-135 -70 -420 -70h-106q-70 2 -103 3v-662h-61zM143 717h293q469 0 469 377q0 381 -469 381h-293v-758z" />
<glyph unicode="Q" horiz-adv-x="1794" d="M33 766q0 334 227 563.5t559 229.5t559.5 -229.5t227.5 -563.5q0 -348 -263 -600q162 -98 388 -129v-64q-238 31 -439 154q-205 -154 -467 -154q-338 0 -565 227.5t-227 565.5zM94 766q0 -141 43 -258q180 63 352 63q240 0 439 -106q94 -53 366 -262q250 219 250 563 q0 309 -208 522t-517 213t-517 -213t-208 -522zM162 449q96 -201 270 -310.5t395 -109.5q238 0 418 137q-119 88 -239.5 175t-225.5 126q-131 47 -299 47q-147 0 -319 -65z" />
<glyph unicode="R" horiz-adv-x="1136" d="M113 0v1530h346q287 0 434 -86q188 -113 188 -385q0 -227 -141 -357q-133 -121 -365 -124l408 -578h-78l-444 633q270 0 393 72q166 96 166 352q0 250 -170 346q-127 72 -391 72h-285v-1475h-61z" />
<glyph unicode="S" horiz-adv-x="927" d="M25 387h61q20 -158 117 -256q104 -102 258 -102t267.5 105.5t113.5 258.5q0 221 -203 316q-188 66 -379 131q-203 94 -203 317q0 176 117 287.5t295 111.5q160 0 265.5 -98t125.5 -258h-61q-55 299 -334 299q-147 0 -246.5 -93t-99.5 -239q0 -205 203 -290 q190 -63 378 -129q203 -103 203 -347q0 -178 -131 -303t-309 -125t-302 118t-136 296z" />
<glyph unicode="T" horiz-adv-x="899" d="M8 1475v55h885v-55h-412v-1475h-61v1475h-412z" />
<glyph unicode="U" horiz-adv-x="1200" d="M135 539v991h62v-991q0 -510 405 -510q399 0 399 510v991h62v-991q0 -250 -102 -396q-119 -170 -363 -170q-240 0 -360 170q-102 147 -103 396z" />
<glyph unicode="V" horiz-adv-x="1370" d="M16 1530h70l598 -1426l600 1426h68l-647 -1530h-43z" />
<glyph unicode="W" horiz-adv-x="1832" d="M33 1530h65l406 -1446h4l387 1446h43l391 -1446h4l406 1446h63l-434 -1530h-80l-370 1368h-5l-366 -1368h-82z" />
<glyph unicode="X" horiz-adv-x="1150" d="M25 0l516 778l-498 752h74l456 -694l461 694h72l-498 -752l520 -778h-71l-484 725l-481 -725h-67z" />
<glyph unicode="Y" horiz-adv-x="1120" d="M23 1530h67l469 -932l467 932h70q-133 -252 -269 -504q-188 -350 -237 -498v-528h-62v528q-51 158 -235 500q-135 252 -270 502z" />
<glyph unicode="Z" horiz-adv-x="1011" d="M6 1475v55h955l-826 -1475h869v-55h-969l825 1475h-854z" />
<glyph unicode="[" horiz-adv-x="544" d="M102 -31v1055q0 371 340 535v-76q-274 -135 -274 -459v-1055q0 -322 274 -456v-76q-340 166 -340 532z" />
<glyph unicode="\" horiz-adv-x="831" d="M23 1530h67l719 -1737h-68z" />
<glyph unicode="]" horiz-adv-x="718" d="M188 -487q274 135 275 456v1055q0 324 -275 459v76q340 -168 340 -535v-1055q0 -369 -340 -532v76z" />
<glyph unicode="^" horiz-adv-x="1048" d="M139 776l353 754h65l352 -754h-65l-320 686l-319 -686h-66z" />
<glyph unicode="_" horiz-adv-x="921" d="M-51 -156h1024v-102h-1024v102z" />
<glyph unicode="`" horiz-adv-x="839" d="M162 1536l28 49l486 -287l-27 -47z" />
<glyph unicode="a" horiz-adv-x="1382" d="M123 549q0 244 164 408.5t407 164.5q158 0 299 -80q152 -86 205 -225h4v279h58v-1096h-58v272h-4q-74 -143 -207 -221t-297 -78q-246 0 -408.5 165t-162.5 411zM180 549q0 -225 146.5 -373.5t373.5 -148.5q217 0 362.5 151.5t145.5 370.5q0 221 -147.5 370.5 t-366.5 149.5q-221 0 -367.5 -149.5t-146.5 -370.5z" />
<glyph unicode="b" horiz-adv-x="1234" d="M49 0v1530h57v-713h5q68 143 205 224t298 81q246 0 409 -163.5t163 -409.5t-163 -411t-409 -165q-164 0 -295 76q-137 80 -208 223h-5v-272h-57zM100 549q0 -219 145.5 -370.5t362.5 -151.5q225 0 372.5 148.5t147.5 373.5q0 221 -146 370.5t-368 149.5 q-221 0 -367.5 -149.5t-146.5 -370.5z" />
<glyph unicode="c" horiz-adv-x="1173" d="M31 547v2q0 244 163.5 408.5t407.5 164.5q186 0 335 -103.5t206 -277.5h-64q-51 150 -183 239t-292 89q-221 0 -368.5 -149.5t-147.5 -370.5t147.5 -371.5t366.5 -150.5q158 0 289 86q139 88 186 233h64q-57 -172 -206 -272.5t-333 -100.5q-248 0 -409.5 163t-161.5 411z " />
<glyph unicode="d" horiz-adv-x="1374" d="M119 549q0 244 163.5 408.5t407.5 164.5q160 0 299 -80q152 -84 205 -225h4v713h57v-1530h-57v272h-4q-72 -143 -206 -221t-298 -78q-244 0 -407.5 165t-163.5 411zM176 549q0 -225 147.5 -373.5t372.5 -148.5q219 0 363.5 151.5t144.5 370.5q0 221 -146.5 370.5 t-367.5 149.5t-367.5 -149.5t-146.5 -370.5z" />
<glyph unicode="e" horiz-adv-x="1267" d="M70 547v2q0 242 165.5 407.5t407.5 165.5q233 0 406 -157q164 -155 164 -359q0 -16 -1 -33l-2 -30h-1081q2 -217 150.5 -366.5t363.5 -149.5q152 0 275.5 76.5t187.5 213.5h63q-70 -162 -210 -253t-318 -91q-246 0 -408.5 164t-162.5 410zM123 602l1032 -12 q-8 117 -65 229q-133 256 -457 256q-193 0 -345.5 -145.5t-164.5 -327.5z" />
<glyph unicode="f" horiz-adv-x="624" d="M70 1042v54h178q0 229 49 319q74 131 291 144v-58q-186 -14 -244 -121q-39 -74 -39 -284h283v-54h-283v-1042h-57v1042h-178z" />
<glyph unicode="g" horiz-adv-x="1382" d="M121 549q0 246 165 409.5t412 163.5q158 0 299 -80q152 -84 205 -225h4v279h58v-973q0 -242 -154 -412q-160 -178 -397 -178q-172 0 -318 90q-152 92 -217 246h66q168 -283 461 -283q213 0 357 156t144 371v159h-6q-72 -143 -205 -221t-297 -78q-248 0 -412.5 164 t-164.5 412zM178 549q0 -227 149.5 -374.5t377.5 -147.5q217 0 362 151.5t145 370.5q0 221 -147 370.5t-367 149.5q-223 0 -371.5 -148.5t-148.5 -371.5z" />
<glyph unicode="h" horiz-adv-x="1181" d="M94 0v1530h58v-645h4q49 117 180 180q117 57 256 57q498 0 498 -542v-580h-58q0 59 7.5 208.5t7.5 231.5q0 287 -82 434q-106 195 -373 195q-268 0 -377 -190q-80 -143 -80 -428q0 -84 8.5 -237t8.5 -214h-58z" />
<glyph unicode="i" horiz-adv-x="335" d="M139 0v1096h58v-1096h-58zM139 1341v189h58v-189h-58z" />
<glyph unicode="j" horiz-adv-x="389" d="M10 -379q143 20 193 141q30 74 30 239v11v1084h58v-1084q0 -201 -43 -295q-63 -137 -238 -157v61zM233 1339v191h58v-191h-58z" />
<glyph unicode="k" horiz-adv-x="964" d="M123 0v1530h57v-1231h4l592 797h76l-401 -535l436 -561h-76l-397 514l-234 -313v-201h-57z" />
<glyph unicode="l" horiz-adv-x="335" d="M139 0v1530h58v-1530h-58z" />
<glyph unicode="m" horiz-adv-x="1892" d="M131 0v1096h57v-195h5q51 102 148 161.5t212 59.5q135 0 242 -65q113 -72 149 -197h4q39 121 154 193q105 69 233 69h4q422 0 422 -508v-614h-57q0 47 10 206t10 255q0 608 -385 608q-365 0 -364 -455v-614h-57v614q0 455 -365 455q-383 0 -383 -635q0 -94 9 -244.5 t9 -189.5h-57z" />
<glyph unicode="n" horiz-adv-x="1257" d="M131 0v1096h57v-211h5q49 117 182 180q117 57 254 57q498 0 497 -542v-580h-57q0 59 8 208.5t8 231.5q0 287 -81 434q-109 195 -375 195q-203 0 -322 -117.5t-119 -320.5v-631h-57z" />
<glyph unicode="o" horiz-adv-x="1280" d="M68 549q0 244 164.5 408.5t406.5 164.5q244 0 407.5 -164.5t163.5 -408.5q0 -246 -162.5 -411t-408.5 -165q-244 0 -407.5 165t-163.5 411zM125 549q0 -221 147.5 -371.5t366.5 -150.5q221 0 367.5 150.5t146.5 371.5t-146.5 370.5t-367.5 149.5q-219 0 -366.5 -149.5 t-147.5 -370.5z" />
<glyph unicode="p" horiz-adv-x="1306" d="M100 -440v1536h58v-273h4q72 143 206 221t298 78q244 0 407.5 -164.5t163.5 -408.5q0 -246 -164 -411t-407 -165q-158 0 -299 80q-152 86 -205 226h-4v-719h-58zM152 549q0 -221 146 -371.5t368 -150.5q221 0 367.5 150.5t146.5 371.5q0 225 -147.5 372.5t-373.5 147.5 q-217 0 -362 -150.5t-145 -369.5z" />
<glyph unicode="q" horiz-adv-x="1329" d="M59 549q0 244 164 408.5t408 164.5q164 0 298 -77.5t206 -221.5h4v273h57v-1536h-57v719h-4q-53 -139 -205 -226q-141 -80 -299 -80q-244 0 -408 165t-164 411zM117 549q0 -221 146.5 -371.5t367.5 -150.5t367.5 150.5t146.5 371.5q0 219 -145.5 369.5t-362.5 150.5 q-225 0 -372.5 -147.5t-147.5 -372.5z" />
<glyph unicode="r" horiz-adv-x="593" d="M106 0v1096h58v-199h4q98 209 379 225v-55q-383 -10 -383 -473v-594h-58z" />
<glyph unicode="s" horiz-adv-x="757" d="M53 303h58q0 -125 76.5 -200.5t199.5 -75.5q115 0 187.5 75.5t72.5 190.5q0 158 -143 223q-133 45 -268 92q-143 68 -144 232q0 129 82 205.5t213 76.5q129 0 208 -77.5t79 -206.5h-58q0 106 -61 168.5t-168 62.5q-104 0 -170.5 -62.5t-66.5 -166.5q0 -135 143 -193 q135 -47 268 -94q144 -76 144 -252q0 -141 -88.5 -234.5t-229.5 -93.5q-143 0 -238.5 93.5t-95.5 236.5z" />
<glyph unicode="t" horiz-adv-x="616" d="M20 1042v54h240v434h57v-434h279v-54h-279v-1042h-57v1042h-240z" />
<glyph unicode="u" horiz-adv-x="1277" d="M141 518v578h58q0 -57 -7.5 -206t-7.5 -228q0 -291 80 -439q108 -196 372 -196h3q205 0 322.5 119.5t117.5 326.5v623h58v-1096h-58v221h-4q-49 -121 -178 -188q-117 -59 -258 -60q-498 0 -498 545z" />
<glyph unicode="v" horiz-adv-x="1042" d="M23 1096h59l424 -1028l418 1028h65l-446 -1096h-74z" />
<glyph unicode="w" horiz-adv-x="1593" d="M39 1096h63l367 -1010h4l301 862h43l301 -862h4l365 1010h65l-401 -1096h-66l-290 831h-4l-287 -831h-66z" />
<glyph unicode="x" horiz-adv-x="854" d="M16 0l363 551l-363 545h74l324 -490l325 490h70l-360 -545l360 -551h-70l-325 494l-324 -494h-74z" />
<glyph unicode="y" d="M43 1096h63l402 -1016l428 1016h68l-658 -1536h-65l192 442z" />
<glyph unicode="z" horiz-adv-x="827" d="M23 0v49l673 993h-637v54h711v-56l-674 -987h709v-53h-782z" />
<glyph unicode="{" horiz-adv-x="602" d="M68 461v59q94 25 131 142q29 88 28 260q0 45 -2 139t-2 139q0 172 31 252q41 106 147 107h136v-56h-111q-80 0 -111 -78q-25 -61 -24 -192q0 -43 3 -140.5t3 -148.5q0 -360 -164 -455q164 -74 164 -419q0 -53 -3 -158t-3 -150q0 -270 135 -270h111v-55h-136 q-102 0 -141 84q-31 68 -31 209q0 47 4.5 150.5t4.5 156.5q0 340 -170 424z" />
<glyph unicode="|" horiz-adv-x="681" d="M311 -207v1737h62v-1737h-62z" />
<glyph unicode="}" horiz-adv-x="686" d="M109 -508h110q135 0 135 270q0 45 -4 149.5t-4 158.5q0 346 166 419q-166 94 -166 455q0 51 3 148.5t3 140.5q0 131 -22 192q-33 78 -111 78h-110v56h135q104 0 145 -107q33 -80 33 -252q0 -45 -3 -139t-3 -139q0 -172 28 -260q37 -117 134 -142v-59q-170 -84 -170 -424 q0 -53 4 -156.5t4 -150.5q0 -141 -31 -209q-41 -84 -141 -84h-135v55z" />
<glyph unicode="~" horiz-adv-x="1132" d="M109 473q76 150 249 150q84 0 241 -76t218 -76q84 0 168 129l39 -39q-80 -147 -203 -147q-82 0 -238.5 75.5t-224.5 75.5q-137 0 -211 -129z" />
<glyph unicode="&#xa1;" horiz-adv-x="376" d="M158 -432v1188h61v-1188h-61zM158 932v166h61v-166h-61z" />
<glyph unicode="&#xa2;" horiz-adv-x="1005" d="M74 764q0 188 119.5 316t308.5 145v196h61v-198q260 -31 369 -252h-68q-104 195 -334 194q-172 0 -283.5 -112.5t-111.5 -282.5q0 -174 109.5 -289.5t283.5 -115.5q104 0 193 45q98 51 143 139h70q-55 -106 -154.5 -173t-216.5 -73v-223h-61v223q-184 12 -306 144.5 t-122 316.5z" />
<glyph unicode="&#xa3;" horiz-adv-x="1054" d="M-25 758v55h177q-84 106 -84 252q0 209 139 350t348 141q172 0 303 -105t172 -273h-63q-41 143 -154 232t-258 89q-184 0 -305 -124t-121 -310q0 -139 102 -252h560v-55h-500v-4q213 -158 213 -398q0 -158 -92 -301h188q182 0 297 86q125 92 125 252q0 57 -18 121h63 q12 -47 12 -100q0 -414 -489 -414h-553v55h303q102 158 102 299q0 213 -237 404h-230z" />
<glyph unicode="&#xa4;" horiz-adv-x="1054" d="M39 1155l43 43l158 -160q129 113 286 113q160 0 287 -111l156 158l45 -43l-156 -160q109 -125 109 -286q0 -164 -115 -289l158 -160l-43 -43l-156 158q-129 -106 -285 -107q-154 0 -284 107l-158 -158l-41 43l158 160q-115 127 -115 289q0 164 111 286zM147 709 q0 -152 114 -264.5t265 -112.5q156 0 267.5 111.5t111.5 265.5q0 156 -111.5 267t-267.5 111q-154 0 -266.5 -112.5t-112.5 -265.5z" />
<glyph unicode="&#xa5;" horiz-adv-x="1054" d="M23 1530h65l434 -723l443 723h65l-418 -684h387v-53h-419q-27 -53 -27 -54v-170h446v-55h-446v-514h-61v514h-439v55h439v170l-29 54h-410v53h379z" />
<glyph unicode="&#xa6;" horiz-adv-x="677" d="M309 -207v694h62v-694h-62zM309 836v694h62v-694h-62z" />
<glyph unicode="&#xa7;" horiz-adv-x="1081" d="M78 670q0 100 57.5 185t149.5 132q-94 88 -95 221q0 158 104.5 254.5t262.5 96.5q164 0 268.5 -92.5t104.5 -254.5h-58q-25 283 -315 283q-133 0 -221 -76t-88 -205q0 -156 196 -262q182 -86 365 -172q197 -115 197 -295q0 -98 -54.5 -183t-140.5 -136q143 -102 143 -262 q0 -164 -125 -269q-115 -96 -282 -96q-434 0 -434 463h57q0 -401 375 -401q145 0 243 75q109 84 109 228q0 162 -213 266q-197 86 -395 174q-211 121 -211 326zM135 664q0 -174 158 -248l461 -215q78 33 136 114.5t58 165.5q0 102 -63 168q-47 51 -152 103l-405 196 q-193 -96 -193 -284z" />
<glyph unicode="&#xa8;" horiz-adv-x="802" d="M250 1278v240h59v-240h-59zM496 1278v240h59v-240h-59z" />
<glyph unicode="&#xa9;" horiz-adv-x="1681" d="M59 766q0 330 226.5 559t556.5 229q328 0 554 -229t226 -559q0 -328 -226.5 -558.5t-553.5 -230.5q-334 0 -558.5 227.5t-224.5 561.5zM117 766q0 -307 210 -521t515 -214t514 215t209 520q0 307 -209 520t-514 213t-515 -213t-210 -520zM412 764q0 207 116 340 q125 139 328 139q145 0 261 -84t134 -225h-57q-25 121 -119 188.5t-221 67.5q-178 0 -281.5 -122t-103.5 -302q0 -182 98 -299q106 -123 285 -123q150 0 247 91t113 243h58q-12 -170 -130 -279.5t-290 -109.5q-201 0 -322 139q-117 131 -116 336z" />
<glyph unicode="&#xaa;" horiz-adv-x="802" d="M31 1198q0 152 109.5 256.5t260.5 104.5q98 0 185.5 -52.5t124.5 -140.5h4v174h57v-688h-57v172h-4q-35 -90 -125 -141q-82 -47 -185 -47q-154 0 -262 104t-108 258zM88 1190q0 -127 94 -214t221 -87q131 0 221.5 88t90.5 219q0 127 -92.5 217t-221.5 90q-133 0 -223 -90 t-90 -223z" />
<glyph unicode="&#xab;" horiz-adv-x="634" d="M70 571l227 400l41 -56l-197 -344l197 -344l-41 -53zM297 571l229 400l39 -56l-196 -344l196 -344l-39 -53z" />
<glyph unicode="&#xac;" horiz-adv-x="1146" d="M61 688v60h1024v-461h-57v401h-967z" />
<glyph unicode="&#xad;" horiz-adv-x="661" d="M57 543v59h545v-59h-545z" />
<glyph unicode="&#xae;" horiz-adv-x="1681" d="M59 766q0 330 226.5 559t556.5 229q328 0 554 -229t226 -559q0 -328 -226.5 -558.5t-553.5 -230.5q-334 0 -558.5 227.5t-224.5 561.5zM117 766q0 -307 210 -521t515 -214t514 215t209 520q0 307 -209 520t-514 213t-515 -213t-210 -520zM504 301v918h387q131 0 211 -56 q94 -63 94 -190q0 -174 -176 -223v-5q109 -27 139 -108q16 -43 19 -166q-1 -115 30 -170h-59q-31 49 -31 133q0 18 2 51t2 50q0 90 -45 129q-61 53 -225 53h-291v-416h-57zM561 772h287q119 0 194 41q97 51 97 160q0 193 -267 192h-311v-393z" />
<glyph unicode="&#xaf;" horiz-adv-x="942" d="M106 1366v61h730v-61h-730z" />
<glyph unicode="&#xb0;" horiz-adv-x="727" d="M70 1171q0 123 86 209t206 86q123 0 208 -86t85 -209t-85 -210t-208 -87t-207.5 87.5t-84.5 209.5zM127 1171q0 -98 68.5 -167.5t166.5 -69.5q100 0 168 69.5t68 167.5t-68.5 168t-167.5 70q-98 0 -166.5 -69.5t-68.5 -168.5z" />
<glyph unicode="&#xb1;" horiz-adv-x="1116" d="M43 0v57h1032v-57h-1032zM43 582v57h487v408h58v-408h487v-57h-487v-408h-58v408h-487z" />
<glyph unicode="&#xb2;" horiz-adv-x="636" d="M41 612v47l379 400q113 119 112 215q0 100 -54 160.5t-154 60.5q-104 0 -160 -78q-51 -68 -51 -176h-58q0 131 73 218t200 87q121 0 191.5 -74.5t70.5 -197.5q0 -119 -199 -338q-135 -137 -270 -272h475v-52h-555z" />
<glyph unicode="&#xb3;" horiz-adv-x="636" d="M35 889h57q2 -102 63.5 -172t163.5 -70t165 64.5t63 167.5q0 231 -299 231v53q242 0 241 164q0 72 -45 120t-114 48q-74 0 -120 -47t-48 -121h-58q4 96 66.5 157.5t159.5 61.5q90 0 153.5 -63.5t63.5 -153.5q0 -127 -117 -188q78 -33 126 -103.5t48 -154.5 q0 -125 -80 -206t-205 -81t-204.5 84t-79.5 209z" />
<glyph unicode="&#xb4;" horiz-adv-x="864" d="M174 1298l485 287l29 -49l-487 -285z" />
<glyph unicode="&#xb6;" horiz-adv-x="1048" d="M33 1116q0 207 141 316q127 98 338 98h504v-57h-131v-1733h-62v1728h-264v-1728h-61v969q-205 0 -330 98q-135 109 -135 309z" />
<glyph unicode="&#xb7;" horiz-adv-x="399" d="M168 444v168h61v-168h-61z" />
<glyph unicode="&#xb8;" horiz-adv-x="675" d="M188 -287h56q16 -74 96 -73q41 0 67.5 29.5t26.5 72.5q0 39 -27.5 65.5t-66.5 26.5q-55 0 -84 -51l-45 10l94 207h60l-54 -117l4 -2q12 6 27 6q61 0 104 -42t43 -103q0 -68 -41.5 -113t-107.5 -45q-131 0 -152 129z" />
<glyph unicode="&#xb9;" horiz-adv-x="567" d="M158 1479v51h252v-918h-58v867h-194z" />
<glyph unicode="&#xba;" horiz-adv-x="817" d="M49 1190q0 154 101.5 261.5t255.5 107.5t258 -103.5t104 -257.5q0 -150 -105.5 -256t-256.5 -106q-145 0 -251 104t-106 250zM106 1192q0 -123 88.5 -213t211.5 -90q127 0 216 91t89 218t-87 216t-214 89q-131 0 -217.5 -90t-86.5 -221z" />
<glyph unicode="&#xbb;" horiz-adv-x="628" d="M68 227l196 344l-196 344l38 56l230 -400l-230 -397zM295 227l197 344l-197 344l41 56l227 -400l-227 -397z" />
<glyph unicode="&#xbc;" horiz-adv-x="1343" d="M43 1479v51h252v-918h-57v867h-195zM246 0l674 1530h61l-676 -1530h-59zM688 176v43l457 699h67v-691h86v-51h-86v-176h-57v176h-467zM758 227h397l-2 615z" />
<glyph unicode="&#xbd;" horiz-adv-x="1449" d="M47 1479v51h252v-918h-57v867h-195zM250 0l674 1530h61l-676 -1530h-59zM850 0v47l379 399q113 119 112 216q0 100 -55 160.5t-153 60.5q-104 0 -162 -78q-49 -68 -49 -176h-58q0 131 72 219t201 88q121 0 191.5 -76t70.5 -198q0 -119 -199 -338q-135 -137 -270 -273h475 v-51h-555z" />
<glyph unicode="&#xbe;" horiz-adv-x="1566" d="M41 889h57q2 -102 64.5 -172t163.5 -70q102 0 164.5 64.5t62.5 167.5q0 231 -299 231v53q242 0 242 164q0 72 -45 120t-115 48q-74 0 -119 -47t-49 -121h-57q6 96 68.5 157.5t156.5 61.5q90 0 153.5 -63.5t63.5 -153.5q0 -127 -117 -188q78 -33 126 -103.5t48 -154.5 q0 -125 -79.5 -206t-204.5 -81t-204 84t-81 209zM473 0l674 1530h61l-676 -1530h-59zM915 176v43l457 699h68v-691h86v-51h-86v-176h-58v176h-467zM985 227h397l-2 615z" />
<glyph unicode="&#xbf;" horiz-adv-x="886" d="M6 -25q0 131 105 250q96 104 192 209q102 139 100 320h62q-4 -203 -109 -346q-94 -102 -188 -205q-100 -111 -100 -232q0 -156 107.5 -261t262.5 -105q162 0 268.5 103.5t112.5 264.5h62q-8 -188 -131 -310t-310 -122q-180 0 -307 127t-127 307zM406 928v168h59v-168h-59 z" />
<glyph unicode="&#xc0;" horiz-adv-x="1415" d="M18 0l650 1530h80l649 -1530h-66l-227 535h-793l-227 -535h-66zM338 590h739l-370 883zM434 1919l29 49l485 -287l-26 -47z" />
<glyph unicode="&#xc1;" horiz-adv-x="1415" d="M18 0l650 1530h80l649 -1530h-66l-227 535h-793l-227 -535h-66zM338 590h739l-370 883zM467 1681l485 287l29 -49l-487 -285z" />
<glyph unicode="&#xc2;" horiz-adv-x="1415" d="M18 0l650 1530h80l649 -1530h-66l-227 535h-793l-227 -535h-66zM307 1702l400 227l401 -227l-53 -31l-348 195l-349 -195zM338 590h739l-370 883z" />
<glyph unicode="&#xc3;" horiz-adv-x="1415" d="M18 0l650 1530h80l649 -1530h-66l-227 535h-793l-227 -535h-66zM336 1808q88 72 201 72q66 0 178 -52t178 -52q63 0 143 47l41 -43q-100 -68 -182 -68q-84 0 -188.5 55.5t-169.5 55.5q-90 0 -160 -56zM338 590h739l-370 883z" />
<glyph unicode="&#xc4;" horiz-adv-x="1415" d="M18 0l650 1530h80l649 -1530h-66l-227 535h-793l-227 -535h-66zM338 590h739l-370 883zM555 1661v240h59v-240h-59zM801 1661v240h59v-240h-59z" />
<glyph unicode="&#xc5;" horiz-adv-x="1415" d="M18 0l650 1530h80l649 -1530h-66l-227 535h-793l-227 -535h-66zM338 590h739l-370 883zM520 1751q0 76 55.5 132t131.5 56q78 0 133 -55t55 -133t-55.5 -133t-132.5 -55q-78 0 -132.5 55t-54.5 133zM578 1753q0 -53 37.5 -92t91.5 -39q53 0 92 39t39 92q0 55 -38 94 t-93 39q-53 0 -91 -40t-38 -93z" />
<glyph unicode="&#xc6;" horiz-adv-x="1826" d="M14 0l1049 1530h749v-55h-647v-676h647v-56h-647v-688h647v-55h-708v547h-645l-375 -547h-70zM504 602h600v891h-4z" />
<glyph unicode="&#xc7;" horiz-adv-x="1515" d="M-29 766q0 334 226.5 563.5t560.5 229.5q199 0 376.5 -99.5t286.5 -269.5h-71q-102 143 -261 227t-331 84q-309 0 -517 -213t-208 -522q0 -307 209 -522t516 -215q172 0 331.5 82t260.5 223h69q-100 -170 -289 -268q-180 -92 -382 -93l-41 -90l4 -2l26 6q59 0 103.5 -42 t44.5 -103q0 -66 -43 -112t-107 -46q-55 0 -99 38t-52 91h55q25 -74 96 -73q41 0 67.5 29.5t26.5 72.5q0 39 -27.5 65.5t-66.5 26.5q-55 0 -84 -51l-45 10l84 184q-311 25 -515 250.5t-204 538.5z" />
<glyph unicode="&#xc8;" horiz-adv-x="980" d="M23 0v1530h831v-55h-770v-676h770v-56h-770v-688h770v-55h-831zM152 1919l28 49l486 -287l-27 -47z" />
<glyph unicode="&#xc9;" horiz-adv-x="980" d="M23 0v1530h831v-55h-770v-676h770v-56h-770v-688h770v-55h-831zM184 1681l486 287l28 -49l-487 -285z" />
<glyph unicode="&#xca;" horiz-adv-x="980" d="M23 0v1530h831v-55h-770v-676h770v-56h-770v-688h770v-55h-831zM25 1702l399 227l401 -227l-53 -31l-348 195l-348 -195z" />
<glyph unicode="&#xcb;" horiz-adv-x="980" d="M23 0v1530h831v-55h-770v-676h770v-56h-770v-688h770v-55h-831zM272 1661v240h60v-240h-60zM518 1661v240h60v-240h-60z" />
<glyph unicode="&#xcc;" horiz-adv-x="552" d="M20 1919l29 49l486 -287l-27 -47zM303 0v1530h62v-1530h-62z" />
<glyph unicode="&#xcd;" horiz-adv-x="589" d="M39 1681l485 287l29 -49l-487 -285zM207 0v1530h61v-1530h-61z" />
<glyph unicode="&#xce;" horiz-adv-x="339" d="M-231 1702l399 227l401 -227l-53 -31l-348 195l-348 -195zM137 0v1530h62v-1530h-62z" />
<glyph unicode="&#xcf;" horiz-adv-x="339" d="M16 1661v240h60v-240h-60zM137 0v1530h62v-1530h-62zM262 1661v240h60v-240h-60z" />
<glyph unicode="&#xd0;" horiz-adv-x="1478" d="M63 743v56h158v731h428q358 0 561 -204t203 -560q0 -358 -202.5 -562t-561.5 -204h-428v743h-158zM283 55h366q330 0 516.5 189.5t186.5 517.5q0 332 -185.5 522.5t-517.5 190.5h-366v-676h514v-56h-514v-688z" />
<glyph unicode="&#xd1;" horiz-adv-x="1472" d="M139 0v1530h92l1039 -1448h4v1448h61v-1530h-78l-1052 1468h-4v-1468h-62zM367 1808q86 72 200 72q66 0 178.5 -52t178.5 -52q63 0 143 47l41 -43q-102 -68 -182 -68q-86 0 -189.5 55.5t-169.5 55.5q-92 0 -159 -56z" />
<glyph unicode="&#xd2;" horiz-adv-x="1656" d="M43 766q0 334 226.5 563.5t559.5 229.5q334 0 560.5 -229.5t226.5 -563.5q0 -336 -226.5 -564.5t-560.5 -228.5q-336 0 -561 228.5t-225 564.5zM104 766q0 -309 208 -523t517 -214q307 0 516 214t209 523t-208.5 522t-516.5 213q-309 0 -517 -213t-208 -522zM557 1919 l29 49l485 -287l-27 -47z" />
<glyph unicode="&#xd3;" horiz-adv-x="1734" d="M82 766q0 334 226.5 563.5t559.5 229.5q334 0 560.5 -229.5t226.5 -563.5q0 -336 -226.5 -564.5t-560.5 -228.5q-336 0 -561 228.5t-225 564.5zM143 766q0 -309 208 -523t517 -214q307 0 516 214t209 523t-208.5 522t-516.5 213q-309 0 -517 -213t-208 -522zM629 1681 l485 287l29 -49l-488 -285z" />
<glyph unicode="&#xd4;" horiz-adv-x="1734" d="M82 766q0 334 226.5 563.5t559.5 229.5q334 0 560.5 -229.5t226.5 -563.5q0 -336 -226.5 -564.5t-560.5 -228.5q-336 0 -561 228.5t-225 564.5zM143 766q0 -309 208 -523t517 -214q307 0 516 214t209 523t-208.5 522t-516.5 213q-309 0 -517 -213t-208 -522zM469 1702 l399 227l402 -227l-53 -31l-349 195l-348 -195z" />
<glyph unicode="&#xd5;" horiz-adv-x="1734" d="M82 766q0 334 226.5 563.5t559.5 229.5q334 0 560.5 -229.5t226.5 -563.5q0 -336 -226.5 -564.5t-560.5 -228.5q-336 0 -561 228.5t-225 564.5zM143 766q0 -309 208 -523t517 -214q307 0 516 214t209 523t-208.5 522t-516.5 213q-309 0 -517 -213t-208 -522zM498 1808 q86 72 200 72q66 0 178.5 -52t178.5 -52q63 0 143 47l41 -43q-102 -68 -182 -68q-86 0 -189.5 55.5t-169.5 55.5q-92 0 -159 -56z" />
<glyph unicode="&#xd6;" horiz-adv-x="1656" d="M43 766q0 334 226.5 563.5t559.5 229.5q334 0 560.5 -229.5t226.5 -563.5q0 -336 -226.5 -564.5t-560.5 -228.5q-336 0 -561 228.5t-225 564.5zM104 766q0 -309 208 -523t517 -214q307 0 516 214t209 523t-208.5 522t-516.5 213q-309 0 -517 -213t-208 -522zM678 1661 v240h59v-240h-59zM924 1661v240h59v-240h-59z" />
<glyph unicode="&#xd7;" horiz-adv-x="1146" d="M61 47l469 473l-469 467l41 45l471 -471l471 471l41 -45l-469 -467l469 -473l-41 -43l-471 473l-471 -473z" />
<glyph unicode="&#xd8;" horiz-adv-x="1662" d="M45 766q0 334 227.5 563.5t558.5 229.5q248 0 449 -136l180 250l49 -37l-180 -250q289 -235 289 -620q0 -334 -226.5 -563.5t-560.5 -229.5q-240 0 -430 125l-200 -276l-47 37l196 274q-145 111 -225 279t-80 354zM106 766q0 -172 73 -327.5t206 -258.5l860 1196 q-184 125 -414 125q-307 0 -516 -213t-209 -522zM436 147q176 -119 395 -118q309 0 517 214t208 523q0 166 -67.5 317.5t-194.5 253.5z" />
<glyph unicode="&#xd9;" horiz-adv-x="1200" d="M135 539v991h62v-991q0 -510 405 -510q399 0 399 510v991h62v-991q0 -250 -102 -396q-119 -170 -363 -170q-240 0 -360 170q-102 147 -103 396zM326 1919l28 49l486 -287l-27 -47z" />
<glyph unicode="&#xda;" horiz-adv-x="1200" d="M135 539v991h62v-991q0 -510 405 -510q399 0 399 510v991h62v-991q0 -250 -102 -396q-119 -170 -363 -170q-240 0 -360 170q-102 147 -103 396zM358 1681l486 287l28 -49l-487 -285z" />
<glyph unicode="&#xdb;" horiz-adv-x="1200" d="M135 539v991h62v-991q0 -510 405 -510q399 0 399 510v991h62v-991q0 -250 -102 -396q-119 -170 -363 -170q-240 0 -360 170q-102 147 -103 396zM199 1702l399 227l401 -227l-53 -31l-348 195l-348 -195z" />
<glyph unicode="&#xdc;" horiz-adv-x="1159" d="M117 539v991h61v-991q0 -510 406 -510q399 0 399 510v991h61v-991q0 -250 -104 -396q-119 -170 -360 -170q-242 0 -361 170q-102 147 -102 396zM428 1661v240h59v-240h-59zM674 1661v240h59v-240h-59z" />
<glyph unicode="&#xdd;" horiz-adv-x="995" d="M-39 1530h68l469 -932l467 932h69l-270 -504q-186 -350 -236 -498v-528h-61v528q-53 158 -236 500q-135 252 -270 502zM258 1681l485 287l29 -49l-487 -285z" />
<glyph unicode="&#xde;" horiz-adv-x="968" d="M43 0v1530h61v-322q33 0 105 2h108q283 0 418 -69q193 -99 193 -367t-191 -366q-133 -70 -415 -70h-111q-74 2 -107 2v-340h-61zM104 395h293q469 0 469 377q0 381 -469 381h-293v-758z" />
<glyph unicode="&#xdf;" horiz-adv-x="1054" d="M76 0v977q0 254 67 389q92 190 324 190q182 0 291.5 -112.5t109.5 -294.5q0 -121 -57 -219q-61 -104 -170 -148v-4q152 -20 245 -130.5t93 -264.5q0 -170 -117 -290t-284 -120q-186 0 -295 119q-102 113 -113 303h57q6 -164 101.5 -266t255.5 -102q141 0 239.5 102 t98.5 244q0 215 -152 301q-115 66 -344 65v54q170 0 277.5 93t107.5 263q0 160 -91 256t-251 96q-207 0 -285 -174q-51 -117 -51 -350v-977h-57z" />
<glyph unicode="&#xe0;" horiz-adv-x="1382" d="M123 549q0 244 164 408.5t407 164.5q158 0 299 -80q152 -86 205 -225h4v279h58v-1096h-58v272h-4q-74 -143 -207 -221t-297 -78q-246 0 -408.5 165t-162.5 411zM180 549q0 -225 146.5 -373.5t373.5 -148.5q217 0 362.5 151.5t145.5 370.5q0 221 -147.5 370.5 t-366.5 149.5q-221 0 -367.5 -149.5t-146.5 -370.5zM457 1536l28 49l486 -287l-27 -47z" />
<glyph unicode="&#xe1;" horiz-adv-x="1382" d="M123 549q0 244 164 408.5t407 164.5q158 0 299 -80q152 -86 205 -225h4v279h58v-1096h-58v272h-4q-74 -143 -207 -221t-297 -78q-246 0 -408.5 165t-162.5 411zM180 549q0 -225 146.5 -373.5t373.5 -148.5q217 0 362.5 151.5t145.5 370.5q0 221 -147.5 370.5 t-366.5 149.5q-221 0 -367.5 -149.5t-146.5 -370.5zM479 1298l486 287l28 -49l-487 -285z" />
<glyph unicode="&#xe2;" horiz-adv-x="1382" d="M123 549q0 244 164 408.5t407 164.5q158 0 299 -80q152 -86 205 -225h4v279h58v-1096h-58v272h-4q-74 -143 -207 -221t-297 -78q-246 0 -408.5 165t-162.5 411zM180 549q0 -225 146.5 -373.5t373.5 -148.5q217 0 362.5 151.5t145.5 370.5q0 221 -147.5 370.5 t-366.5 149.5q-221 0 -367.5 -149.5t-146.5 -370.5zM330 1319l399 227l401 -227l-53 -31l-348 195l-348 -195z" />
<glyph unicode="&#xe3;" horiz-adv-x="1382" d="M123 549q0 244 164 408.5t407 164.5q158 0 299 -80q152 -86 205 -225h4v279h58v-1096h-58v272h-4q-74 -143 -207 -221t-297 -78q-246 0 -408.5 165t-162.5 411zM180 549q0 -225 146.5 -373.5t373.5 -148.5q217 0 362.5 151.5t145.5 370.5q0 221 -147.5 370.5 t-366.5 149.5q-221 0 -367.5 -149.5t-146.5 -370.5zM358 1405q86 72 201 72q66 0 178.5 -52.5t177.5 -52.5q63 0 144 47l41 -43q-102 -68 -182 -67q-86 0 -189.5 55t-169.5 55q-92 0 -160 -55z" />
<glyph unicode="&#xe4;" horiz-adv-x="1382" d="M123 549q0 244 164 408.5t407 164.5q158 0 299 -80q152 -86 205 -225h4v279h58v-1096h-58v272h-4q-74 -143 -207 -221t-297 -78q-246 0 -408.5 165t-162.5 411zM180 549q0 -225 146.5 -373.5t373.5 -148.5q217 0 362.5 151.5t145.5 370.5q0 221 -147.5 370.5 t-366.5 149.5q-221 0 -367.5 -149.5t-146.5 -370.5zM578 1278v240h59v-240h-59zM823 1278v240h60v-240h-60z" />
<glyph unicode="&#xe5;" horiz-adv-x="1382" d="M123 549q0 244 164 408.5t407 164.5q158 0 299 -80q152 -86 205 -225h4v279h58v-1096h-58v272h-4q-74 -143 -207 -221t-297 -78q-246 0 -408.5 165t-162.5 411zM180 549q0 -225 146.5 -373.5t373.5 -148.5q217 0 362.5 151.5t145.5 370.5q0 221 -147.5 370.5 t-366.5 149.5q-221 0 -367.5 -149.5t-146.5 -370.5zM543 1415q0 76 54 132.5t132 56.5q76 0 132.5 -55.5t56.5 -133.5t-55.5 -133t-133.5 -55t-132 55t-54 133zM600 1417q0 -53 38 -92t91 -39t92 39t39 92q0 55 -39 94t-92 39t-91 -40t-38 -93z" />
<glyph unicode="&#xe6;" horiz-adv-x="2279" d="M43 547v2q0 242 163 407.5t404 165.5q176 0 311.5 -91t194.5 -255h4v320h58v-318h4q133 344 487 344q244 0 403.5 -166.5t165.5 -412.5h-1060q18 -221 151 -365q139 -152 357 -151q139 0 264 84q115 78 188 206h68q-70 -152 -211.5 -248t-302.5 -96q-178 0 -321.5 98.5 t-188.5 264.5h-4v-336h-58v336h-4q-43 -160 -187.5 -261.5t-314.5 -101.5q-246 0 -408.5 165t-162.5 409zM86 549q0 -225 147.5 -373.5t372.5 -148.5q217 0 362.5 151.5t145.5 370.5q0 221 -146.5 370.5t-367.5 149.5t-367.5 -149.5t-146.5 -370.5zM1165 590l1033 -12 q-8 117 -74 239q-143 264 -473 264q-139 0 -293 -127q-178 -150 -193 -364z" />
<glyph unicode="&#xe7;" horiz-adv-x="1173" d="M14 549q0 242 165 407.5t407 165.5q184 0 332.5 -103.5t207.5 -277.5h-63q-53 150 -184 239t-291 89q-221 0 -368.5 -149.5t-147.5 -370.5q0 -219 147.5 -370.5t366.5 -151.5q156 0 292 87t183 232h63q-59 -174 -207.5 -273.5t-334.5 -99.5l-41 -90l4 -2l26 6 q61 0 104.5 -42t43.5 -103q0 -66 -43 -112t-107 -46q-131 0 -151 129h55q20 -74 96 -73q41 0 68 29.5t27 72.5q0 39 -28 65.5t-67 26.5q-55 0 -84 -51l-45 10l84 187q-227 18 -368.5 178.5t-141.5 390.5z" />
<glyph unicode="&#xe8;" horiz-adv-x="1267" d="M70 547v2q0 242 165.5 407.5t407.5 165.5q233 0 406 -157q177 -167 163 -392l-2 -30h-1081q2 -217 150.5 -366.5t363.5 -149.5q152 0 275.5 76.5t187.5 213.5h63q-70 -162 -210 -253t-318 -91q-246 0 -408.5 164t-162.5 410zM123 602l1032 -12q-8 117 -65 229 q-133 256 -457 256q-193 0 -345.5 -145.5t-164.5 -327.5zM293 1536l29 49l485 -287l-27 -47z" />
<glyph unicode="&#xe9;" horiz-adv-x="1267" d="M70 547v2q0 242 165.5 407.5t407.5 165.5q233 0 406 -157q177 -167 163 -392l-2 -30h-1081q2 -217 150.5 -366.5t363.5 -149.5q152 0 275.5 76.5t187.5 213.5h63q-70 -162 -210 -253t-318 -91q-246 0 -408.5 164t-162.5 410zM123 602l1032 -12q-8 117 -65 229 q-133 256 -457 256q-193 0 -345.5 -145.5t-164.5 -327.5zM315 1298l486 287l28 -49l-487 -285z" />
<glyph unicode="&#xea;" horiz-adv-x="1267" d="M70 547v2q0 242 165.5 407.5t407.5 165.5q233 0 406 -157q177 -167 163 -392l-2 -30h-1081q2 -217 150.5 -366.5t363.5 -149.5q152 0 275.5 76.5t187.5 213.5h63q-70 -162 -210 -253t-318 -91q-246 0 -408.5 164t-162.5 410zM123 602l1032 -12q-8 117 -65 229 q-133 256 -457 256q-193 0 -345.5 -145.5t-164.5 -327.5zM166 1319l399 227l402 -227l-54 -31l-348 195l-348 -195z" />
<glyph unicode="&#xeb;" horiz-adv-x="1267" d="M70 547v2q0 242 165.5 407.5t407.5 165.5q233 0 406 -157q177 -167 163 -392l-2 -30h-1081q2 -217 150.5 -366.5t363.5 -149.5q152 0 275.5 76.5t187.5 213.5h63q-70 -162 -210 -253t-318 -91q-246 0 -408.5 164t-162.5 410zM123 602l1032 -12q-8 117 -65 229 q-133 256 -457 256q-193 0 -345.5 -145.5t-164.5 -327.5zM403 1278v240h60v-240h-60zM649 1278v240h60v-240h-60z" />
<glyph unicode="&#xec;" horiz-adv-x="335" d="M-90 1536l29 49l485 -287l-27 -47zM195 0v1096h57v-1096h-57z" />
<glyph unicode="&#xed;" horiz-adv-x="335" d="M-90 1298l485 287l29 -49l-487 -285zM80 0v1096h57v-1096h-57z" />
<glyph unicode="&#xee;" horiz-adv-x="335" d="M-233 1319l399 227l401 -227l-53 -31l-348 195l-348 -195zM137 0v1096h58v-1096h-58z" />
<glyph unicode="&#xef;" horiz-adv-x="335" d="M14 1278v240h60v-240h-60zM137 0v1096h58v-1096h-58zM260 1278v240h59v-240h-59z" />
<glyph unicode="&#xf0;" horiz-adv-x="1226" d="M41 547q0 250 162 412.5t411 162.5q254 0 408 -184l4 4q-150 231 -438 383l-391 -158l-41 41l368 152q-154 76 -340 139l70 31q186 -63 340 -144l358 144l39 -43l-334 -133q529 -316 529 -803q0 -244 -165 -411t-409 -167q-252 0 -411.5 161t-159.5 413zM98 549 q0 -223 146.5 -372.5t367.5 -149.5q223 0 369.5 150.5t146.5 373.5q0 211 -151.5 364.5t-360.5 153.5q-221 0 -369.5 -149.5t-148.5 -370.5z" />
<glyph unicode="&#xf1;" horiz-adv-x="1257" d="M131 0v1096h57v-211h5q49 117 182 180q117 57 254 57q498 0 497 -542v-580h-57q0 59 8 208.5t8 231.5q0 287 -81 434q-109 195 -375 195q-203 0 -322 -117.5t-119 -320.5v-631h-57zM256 1405q88 72 201 72q66 0 178.5 -52.5t177.5 -52.5q63 0 143 47l41 -43 q-100 -68 -182 -67q-84 0 -188.5 55t-169.5 55q-90 0 -160 -55z" />
<glyph unicode="&#xf2;" horiz-adv-x="1280" d="M68 549q0 244 164.5 408.5t406.5 164.5q244 0 407.5 -164.5t163.5 -408.5q0 -246 -162.5 -411t-408.5 -165q-244 0 -407.5 165t-163.5 411zM125 549q0 -221 147.5 -371.5t366.5 -150.5q221 0 367.5 150.5t146.5 371.5t-146.5 370.5t-367.5 149.5q-219 0 -366.5 -149.5 t-147.5 -370.5zM367 1536l28 49l486 -287l-27 -47z" />
<glyph unicode="&#xf3;" horiz-adv-x="1280" d="M68 549q0 244 164.5 408.5t406.5 164.5q244 0 407.5 -164.5t163.5 -408.5q0 -246 -162.5 -411t-408.5 -165q-244 0 -407.5 165t-163.5 411zM125 549q0 -221 147.5 -371.5t366.5 -150.5q221 0 367.5 150.5t146.5 371.5t-146.5 370.5t-367.5 149.5q-219 0 -366.5 -149.5 t-147.5 -370.5zM389 1298l485 287l29 -49l-487 -285z" />
<glyph unicode="&#xf4;" horiz-adv-x="1280" d="M68 549q0 244 164.5 408.5t406.5 164.5q244 0 407.5 -164.5t163.5 -408.5q0 -246 -162.5 -411t-408.5 -165q-244 0 -407.5 165t-163.5 411zM125 549q0 -221 147.5 -371.5t366.5 -150.5q221 0 367.5 150.5t146.5 371.5t-146.5 370.5t-367.5 149.5q-219 0 -366.5 -149.5 t-147.5 -370.5zM240 1319l399 227l401 -227l-53 -31l-348 195l-348 -195z" />
<glyph unicode="&#xf5;" horiz-adv-x="1280" d="M68 549q0 244 164.5 408.5t406.5 164.5q244 0 407.5 -164.5t163.5 -408.5q0 -246 -162.5 -411t-408.5 -165q-244 0 -407.5 165t-163.5 411zM125 549q0 -221 147.5 -371.5t366.5 -150.5q221 0 367.5 150.5t146.5 371.5t-146.5 370.5t-367.5 149.5q-219 0 -366.5 -149.5 t-147.5 -370.5zM268 1405q88 72 201 72q68 0 180.5 -52.5t175.5 -52.5q66 0 144 47l41 -43q-100 -68 -183 -67q-84 0 -187 55t-171 55q-90 0 -160 -55z" />
<glyph unicode="&#xf6;" horiz-adv-x="1280" d="M68 549q0 244 164.5 408.5t406.5 164.5q244 0 407.5 -164.5t163.5 -408.5q0 -246 -162.5 -411t-408.5 -165q-244 0 -407.5 165t-163.5 411zM125 549q0 -221 147.5 -371.5t366.5 -150.5q221 0 367.5 150.5t146.5 371.5t-146.5 370.5t-367.5 149.5q-219 0 -366.5 -149.5 t-147.5 -370.5zM487 1278v240h60v-240h-60zM733 1278v240h60v-240h-60z" />
<glyph unicode="&#xf7;" horiz-adv-x="1060" d="M18 487v60h1024v-60h-1024zM500 0v168h61v-168h-61zM500 866v168h61v-168h-61z" />
<glyph unicode="&#xf8;" horiz-adv-x="1234" d="M45 549q0 242 165 407.5t406 165.5q178 0 314 -90l127 178l43 -34l-123 -175q211 -173 211 -452q0 -246 -163 -411t-409 -165q-174 0 -313 90l-123 -172l-45 37l123 168q-213 166 -213 453zM102 549q0 -258 187 -408l608 846q-121 82 -281 82q-219 0 -366.5 -149.5 t-147.5 -370.5zM334 109q127 -82 282 -82q221 0 367.5 150.5t146.5 371.5q0 254 -186 407z" />
<glyph unicode="&#xf9;" horiz-adv-x="1277" d="M141 518v578h58q0 -57 -7.5 -206t-7.5 -228q0 -291 80 -439q109 -197 375 -196q205 0 322.5 119.5t117.5 326.5v623h58v-1096h-58v221h-4q-49 -121 -178 -188q-117 -59 -258 -60q-498 0 -498 545zM365 1536l28 49l486 -287l-27 -47z" />
<glyph unicode="&#xfa;" horiz-adv-x="1277" d="M141 518v578h58q0 -57 -7.5 -206t-7.5 -228q0 -291 80 -439q109 -197 375 -196q205 0 322.5 119.5t117.5 326.5v623h58v-1096h-58v221h-4q-49 -121 -178 -188q-117 -59 -258 -60q-498 0 -498 545zM397 1298l486 287l28 -49l-487 -285z" />
<glyph unicode="&#xfb;" horiz-adv-x="1277" d="M141 518v578h58q0 -57 -7.5 -206t-7.5 -228q0 -291 80 -439q109 -197 375 -196q205 0 322.5 119.5t117.5 326.5v623h58v-1096h-58v221h-4q-49 -121 -178 -188q-117 -59 -258 -60q-498 0 -498 545zM238 1319l399 227l401 -227l-53 -31l-348 195l-348 -195z" />
<glyph unicode="&#xfc;" horiz-adv-x="1277" d="M141 518v578h58q0 -57 -7.5 -206t-7.5 -228q0 -291 80 -439q109 -197 375 -196q205 0 322.5 119.5t117.5 326.5v623h58v-1096h-58v221h-4q-49 -121 -178 -188q-117 -59 -258 -60q-498 0 -498 545zM485 1278v240h60v-240h-60zM731 1278v240h60v-240h-60z" />
<glyph unicode="&#xfd;" horiz-adv-x="968" d="M4 1096h64l401 -1016l428 1016h68l-658 -1536h-65l192 442zM233 1298l486 287l29 -49l-488 -285z" />
<glyph unicode="&#xfe;" horiz-adv-x="1282" d="M68 -440v1970h57v-729h4q68 147 208 234t306 87q242 0 408 -165.5t166 -407.5q0 -244 -165 -410t-409 -166q-162 0 -303 86t-211 230h-4v-729h-57zM125 543q0 -211 154.5 -363.5t365.5 -152.5q221 0 367.5 149.5t146.5 372.5q0 221 -146.5 370.5t-367.5 149.5 q-219 0 -369.5 -153.5t-150.5 -372.5z" />
<glyph unicode="&#xff;" d="M14 1096h64l401 -1016l428 1016h68l-658 -1536h-65l192 442zM332 1278v240h59v-240h-59zM578 1278v240h59v-240h-59z" />
<glyph unicode="&#x152;" horiz-adv-x="2277" d="M37 766q0 336 219 564.5t553 228.5q246 0 444 -134q209 -139 277 -368h4v473h707v-55h-646v-676h646v-56h-646v-688h646v-55h-707v473h-4q-66 -225 -273 -367q-199 -133 -440 -133q-338 0 -559 227.5t-221 565.5zM98 766q0 -311 203 -524t512 -213q324 0 524 223 q197 215 197 539q0 297 -211 503.5t-510 206.5q-309 0 -512 -212t-203 -523z" />
<glyph unicode="&#x153;" horiz-adv-x="2277" d="M37 547v2q0 242 165 407.5t406 165.5q188 0 333.5 -110.5t201.5 -290.5q63 172 208.5 282.5t323.5 110.5q236 0 399.5 -168t163.5 -401h-1060q12 -221 147 -367q141 -152 358 -151q150 0 276 78.5t173 216.5h63q-139 -348 -512 -349q-182 0 -332.5 111t-199.5 285h-4 q-70 -180 -207 -285q-143 -111 -332 -111q-242 0 -406.5 165t-164.5 409zM94 549q0 -225 147.5 -373.5t372.5 -148.5q217 0 362.5 151.5t145.5 370.5q0 221 -146.5 370.5t-367.5 149.5t-367.5 -149.5t-146.5 -370.5zM1174 590l1032 -12q-8 117 -74 239q-143 264 -473 264 q-139 0 -293 -127q-178 -150 -192 -364z" />
<glyph unicode="&#x178;" horiz-adv-x="1120" d="M23 1530h67l469 -932l467 932h70q-133 -252 -269 -504q-188 -350 -237 -498v-528h-62v528q-51 158 -235 500q-135 252 -270 502zM408 1661v240h59v-240h-59zM653 1661v240h60v-240h-60z" />
<glyph unicode="&#x2c6;" horiz-adv-x="1021" d="M111 1319l399 227l401 -227l-53 -31l-348 195l-348 -195z" />
<glyph unicode="&#x2dc;" horiz-adv-x="956" d="M106 1405q88 72 201 72q68 0 180.5 -52.5t176.5 -52.5q66 0 143 47l41 -43q-94 -68 -182 -67q-84 0 -187.5 55t-171.5 55q-90 0 -160 -55z" />
<glyph unicode="&#x2000;" horiz-adv-x="984" />
<glyph unicode="&#x2001;" horiz-adv-x="1968" />
<glyph unicode="&#x2002;" horiz-adv-x="984" />
<glyph unicode="&#x2003;" horiz-adv-x="1968" />
<glyph unicode="&#x2004;" horiz-adv-x="656" />
<glyph unicode="&#x2005;" horiz-adv-x="492" />
<glyph unicode="&#x2006;" horiz-adv-x="328" />
<glyph unicode="&#x2007;" horiz-adv-x="328" />
<glyph unicode="&#x2008;" horiz-adv-x="246" />
<glyph unicode="&#x2009;" horiz-adv-x="393" />
<glyph unicode="&#x200a;" horiz-adv-x="109" />
<glyph unicode="&#x2010;" horiz-adv-x="661" d="M57 543v59h545v-59h-545z" />
<glyph unicode="&#x2011;" horiz-adv-x="661" d="M57 543v59h545v-59h-545z" />
<glyph unicode="&#x2012;" horiz-adv-x="661" d="M57 543v59h545v-59h-545z" />
<glyph unicode="&#x2013;" horiz-adv-x="1069" d="M94 543v59h881v-59h-881z" />
<glyph unicode="&#x2014;" horiz-adv-x="2093" d="M94 543v59h1905v-59h-1905z" />
<glyph unicode="&#x2018;" horiz-adv-x="348" d="M74 1530h67l131 -318h-67z" />
<glyph unicode="&#x2019;" horiz-adv-x="344" d="M74 1212l131 318h67l-131 -318h-67z" />
<glyph unicode="&#x201a;" horiz-adv-x="460" d="M131 -150l131 320h68l-131 -320h-68z" />
<glyph unicode="&#x201c;" horiz-adv-x="534" d="M76 1530h67l131 -318h-67zM258 1530h68l131 -318h-68z" />
<glyph unicode="&#x201d;" horiz-adv-x="602" d="M111 1212l131 318h67l-131 -318h-67zM293 1212l131 318h68l-132 -318h-67z" />
<glyph unicode="&#x201e;" horiz-adv-x="647" d="M133 -150l131 320h68l-131 -320h-68zM315 -150l131 320h68l-131 -320h-68z" />
<glyph unicode="&#x2026;" horiz-adv-x="1785" d="M180 0v170h62v-170h-62zM862 0v170h62v-170h-62zM1544 0v170h62v-170h-62z" />
<glyph unicode="&#x202f;" horiz-adv-x="393" />
<glyph unicode="&#x2039;" horiz-adv-x="419" d="M76 569l227 402l41 -56l-197 -346l197 -342l-41 -53z" />
<glyph unicode="&#x203a;" horiz-adv-x="425" d="M80 227l196 342l-196 346l41 56l227 -402l-227 -395z" />
<glyph unicode="&#x205f;" horiz-adv-x="492" />
<glyph unicode="&#x2122;" horiz-adv-x="1945" d="M123 1481l2 49h563v-49h-256v-869h-55v869h-254zM817 612v918h76l426 -832l428 832h74v-918h-56v838h-4l-426 -838h-32l-426 836h-5v-836h-55z" />
<glyph unicode="&#xe000;" horiz-adv-x="1095" d="M0 0v1096h1096v-1096h-1096z" />
</font>
</defs>
</svg>
